<?xml version="1.0" standalone="no"?>
<!DOCTYPE svg PUBLIC "-//W3C//DTD SVG 20010904//EN"
 "http://www.w3.org/TR/2001/REC-SVG-20010904/DTD/svg10.dtd">
<svg version="1.0" xmlns="http://www.w3.org/2000/svg"
 width="700.000000pt" height="700.000000pt" viewBox="0 0 700.000000 700.000000"
 preserveAspectRatio="xMidYMid meet">
<metadata>
Created by potrace 1.11, written by Peter Selinger 2001-2013
</metadata>
<g transform="translate(0.000000,700.000000) scale(0.100000,-0.100000)"
fill="#000000" stroke="none">
<path d="M332 6732 c-18 -10 -42 -31 -52 -48 -20 -29 -20 -76 -20 -3182 0
-2986 1 -3156 17 -3184 10 -16 35 -38 55 -49 36 -19 109 -19 3174 -19 l3136 0
38 21 c20 11 44 34 53 49 16 26 17 261 17 3180 0 2919 -1 3154 -17 3180 -9 15
-33 38 -53 49 l-38 21 -3138 0 c-2976 -1 -3141 -2 -3172 -18z m1998 -896 c207
-40 362 -97 484 -177 271 -178 406 -470 406 -880 0 -378 -129 -645 -395 -815
-60 -38 -207 -103 -235 -104 -8 0 21 -20 65 -43 61 -31 103 -65 176 -137 158
-157 238 -290 541 -894 143 -287 283 -563 310 -614 l50 -92 -279 1 -278 0
-277 557 c-298 601 -371 726 -494 848 -54 55 -91 81 -155 112 -147 70 -186 75
-596 80 l-363 4 0 -801 0 -801 -255 0 -255 0 0 1891 0 1890 733 -4 c633 -3
743 -6 817 -21z m3150 -856 c214 -22 434 -102 580 -210 84 -62 213 -196 269
-279 60 -88 135 -249 166 -356 47 -165 56 -237 62 -497 l5 -248 -1072 0 -1072
0 7 -67 c45 -448 261 -751 614 -862 148 -47 210 -55 411 -55 144 1 213 6 311
23 224 39 412 98 593 187 48 24 92 44 97 44 5 0 9 -96 9 -216 l0 -215 -53 -23
c-168 -75 -511 -162 -729 -185 -136 -15 -413 -13 -538 3 -327 44 -583 162
-794 366 -158 153 -263 322 -330 530 -137 422 -101 982 86 1355 66 129 134
223 247 336 120 120 234 200 373 260 218 95 501 135 758 109z"/>
<path d="M1290 4770 l0 -672 418 5 c389 4 423 5 502 26 237 61 385 199 446
416 25 89 30 300 10 405 -44 235 -196 394 -443 462 -73 21 -103 22 -505 26
l-428 3 0 -671z"/>
<path d="M5175 4584 c-390 -61 -636 -294 -716 -679 -10 -49 -19 -105 -19 -122
l0 -33 831 0 831 0 -7 73 c-15 166 -42 264 -108 392 -55 107 -182 236 -282
287 -126 65 -192 80 -355 83 -80 2 -158 1 -175 -1z"/>
</g>
</svg>
