<?xml version="1.0" encoding="utf-8"?>
<!-- Generator: Adobe Illustrator 19.0.0, SVG Export Plug-In . SVG Version: 6.00 Build 0)  -->
<svg version="1.1" id="Layer_1" xmlns="http://www.w3.org/2000/svg" xmlns:xlink="http://www.w3.org/1999/xlink" x="0px" y="0px"
	 viewBox="50 -50 600 600" style="enable-background:new 50 -50 600 600;" xml:space="preserve">
<style type="text/css">
	.st0{fill:#DD7426;}
	.st1{fill:#FFFFFF;}
	.st2{font-family:'Verdana';}
	.st3{font-size:520px;}
	.st4{fill:#E5AE89;stroke:#B75C53;stroke-width:5;stroke-miterlimit:10;}
	.st5{fill:#14202D;}
	.st6{fill:#E29F88;stroke:#A56D5B;stroke-miterlimit:10;}
	.st7{fill:#CC9999;stroke:#A56D5B;stroke-miterlimit:10;}
	.st8{fill:#51423D;}
	.st9{fill:#3A312B;}
	.st10{fill:#302823;}
</style>
<path id="XMLID_8_" class="st0" d="M617-28H84c-6.6,0-12,5.4-12,12v533c0,6.6,5.4,12,12,12h533c6.6,0,12-5.4,12-12V-16
	C629-22.6,623.6-28,617-28z"/>
<text transform="matrix(1 0 0 1 77.125 451)" class="st1 st2 st3">Bi</text>
<path class="st4" d="M432.7,13.5c0,0,7-21,44-24s64-8,78,6s20,25,7,35c-13,10-38.8,20-60.9,18S422.1,28.6,432.7,13.5z"/>
<ellipse class="st5" cx="524.7" cy="9.2" rx="10.7" ry="8.2"/>
<path class="st6" d="M463.3,10.7c0.5-0.6,3.5-4.3,6.3-3.3c0.9,0.3,1.4,0.9,2.2,1.8c0.7,0.8,2.5,3,1.8,4.7c-0.3,0.8-1.2,1.1-3,1.7
	c-2.5,0.8-4.7,1.5-6.5,0.4c-0.2-0.1-1.9-1.2-1.9-2.8C462.2,12.9,462.2,12.1,463.3,10.7z"/>
<path class="st7" d="M490.7,4.9c-2.5,4.7-3.1,5.1-2.8,6.3c0.3,1.6,1.7,2.5,2,2.8c2.3,1.6,4.9,0.6,5.7,0.3c0.7-0.3,3-1.4,3.8-3.8
	c1.2-4.1-3.5-7.3-3.7-7.4c-0.7-0.5-1.8-1.2-2.8-0.8C491.9,2.5,491.5,3.3,490.7,4.9z"/>
<path class="st7" d="M502.8,34.5c6.3,1.2,7.2,2.7,9.2,1.8c2.2-1,3.4-3.9,3.2-6.3c-0.2-3.7-3.4-6.8-6.7-7c-2.8-0.2-4.7,1.8-7.1,4.3
	c-1.1,1.2-3.9,4.1-3.1,5.8C498.8,34,499.9,34,502.8,34.5z"/>
<path class="st7" d="M549.4,22.6c-0.2,0.2-0.4,0.2-0.5,0.2c-1.4,0.1-4.1,1.7-5.9,2.7c-1.6,1-2.8,1.7-4.1,2.9
	c-1.2,1.2-1.4,1.7-2.5,2.3c-1.6,0.8-2.5,0.4-3.2,1.3c-0.7,1-0.2,2.4-0.9,2.8c-0.3,0.1-0.4-0.1-0.8,0.1c-0.8,0.3-0.7,1.4-1.5,1.8
	c-0.3,0.1-0.5,0.1-0.8,0.1c-2-0.1-3.4,1.3-4,0.9c-0.8-0.5-0.2-4.1,2.2-6.5c2-2,3.4-1.2,7.1-3.2c3.6-1.9,3.3-3.2,7.5-5.6
	c0.8-0.5,6-3.3,7.3-1.9C549.8,20.8,549.9,22.1,549.4,22.6z"/>
<ellipse class="st8" cx="465.8" cy="12.5" rx="0.1" ry="0.2"/>
<ellipse class="st9" cx="468.2" cy="10.9" rx="0.2" ry="0.3"/>
<ellipse class="st9" cx="471.3" cy="13.1" rx="0.1" ry="0.1"/>
<ellipse class="st9" cx="469.1" cy="13.7" rx="0.1" ry="0.1"/>
<ellipse class="st9" cx="466" cy="14.6" rx="0" ry="0.1"/>
<ellipse class="st9" cx="467.5" cy="9.3" rx="0.1" ry="0.1"/>
<ellipse class="st9" cx="470.8" cy="11" rx="0.1" ry="0.1"/>
<ellipse class="st10" cx="494.2" cy="5.1" rx="0.6" ry="0.4"/>
<ellipse class="st10" cx="491.1" cy="10.6" rx="0.3" ry="0.4"/>
<ellipse class="st10" cx="495.3" cy="9.3" rx="0.5" ry="0"/>
<ellipse class="st10" cx="492.8" cy="8.8" rx="0.2" ry="0.3"/>
<rect x="493.6" y="11.2" class="st10" width="0" height="0"/>
<ellipse class="st10" cx="508.3" cy="24.4" rx="0.3" ry="0.2"/>
<ellipse class="st10" cx="506.3" cy="27.4" rx="0.3" ry="0.3"/>
<rect x="503.6" y="29.8" class="st10" width="0" height="0"/>
<ellipse class="st10" cx="509.7" cy="29.8" rx="0.6" ry="0"/>
<ellipse class="st10" cx="511.3" cy="33.9" rx="0.4" ry="0.6"/>
<ellipse class="st10" cx="503.2" cy="31.4" rx="0.4" ry="1.1"/>
<ellipse class="st10" cx="511.3" cy="30.1" rx="0.4" ry="0.3"/>
<ellipse class="st10" cx="510.9" cy="27" rx="0.7" ry="0.5"/>
<ellipse class="st10" cx="528.3" cy="32.9" rx="0" ry="0.4"/>
<ellipse class="st10" cx="531.8" cy="30.1" rx="0.4" ry="0"/>
<ellipse class="st10" cx="539.6" cy="26.4" rx="0.3" ry="0.6"/>
<ellipse class="st10" cx="545.8" cy="22.3" rx="0.9" ry="0.7"/>
<ellipse class="st10" cx="547.1" cy="5.7" rx="0.4" ry="0.9"/>
<ellipse class="st10" cx="518.5" cy="-6.1" rx="1.1" ry="0.8"/>
<ellipse class="st10" cx="444.9" cy="10" rx="0.3" ry="0.8"/>
<ellipse class="st10" cx="458.1" cy="28.5" rx="1.6" ry="1.3"/>
<ellipse class="st10" cx="476.3" cy="34.2" rx="1.8" ry="0.3"/>
<ellipse class="st10" cx="493.9" cy="21.5" rx="0.9" ry="0.8"/>
<ellipse class="st10" cx="478.6" cy="1.5" rx="0" ry="0.6"/>
<ellipse class="st10" cx="511.3" cy="18.2" rx="0.4" ry="0.8"/>
<ellipse class="st10" cx="478.4" cy="19.5" rx="1.3" ry="0.5"/>
<ellipse class="st10" cx="493.3" cy="-7.6" rx="0.5" ry="0.8"/>
<ellipse class="st10" cx="562.8" cy="17" rx="0.6" ry="0.4"/>
</svg>
