<?xml version="1.0" encoding="utf-8"?>
<!-- Generator: Adobe Illustrator 19.0.0, SVG Export Plug-In . SVG Version: 6.00 Build 0)  -->
<svg version="1.1" id="Layer_1" xmlns="http://www.w3.org/2000/svg" xmlns:xlink="http://www.w3.org/1999/xlink" x="0px" y="0px"
	 viewBox="0 0 600 600" style="enable-background:new 0 0 600 600;" xml:space="preserve">
<style type="text/css">
	.st0{fill:#FFFFFF;stroke:#000000;stroke-miterlimit:10;}
</style>
<path id="XMLID_3_" class="st0" d="M95.6,439.9c122.7,83.3,263.1,70,324.6-4.6c36.4-44.2,53.8-120.1,20.3-182.6
	c-36.9-68.9-126.5-104.7-215.8-79.3c16.9,25.8,33.8,51.6,50.7,77.5c-76.1-22.1-133.8-37.4-209.9-60.9
	C105.2,140.7,163.2,66.2,202.9,17c1.5,30.4-0.1,64.1,1.4,94.4c9.1-4.2,120.2-61.5,237.6,14.9c85.2,55.5,105.7,145.2,110.3,167.4
	c5.1,24.4,27.6,147.7-59.5,235.2c-100.8,101.2-250.3,55.7-260.1,52.6C147.1,553.9,110.6,462.5,95.6,439.9"/>
</svg>
