<?xml version="1.0" encoding="utf-8"?>
<!-- Generator: Adobe Illustrator 19.0.0, SVG Export Plug-In . SVG Version: 6.00 Build 0)  -->
<svg version="1.1" id="Layer_1" xmlns="http://www.w3.org/2000/svg" xmlns:xlink="http://www.w3.org/1999/xlink" x="0px" y="0px"
	 viewBox="0 0 600 600" style="enable-background:new 0 0 600 600;" xml:space="preserve">
<style type="text/css">
	.st0{fill:#713F91;}
	.st1{fill:#FFFFFF;}
	.st2{font-family:'Verdana';}
	.st3{font-size:373px;}
	.st4{font-family:'OldEnglishTextMT';}
	.st5{font-size:164px;}
</style>
<path id="XMLID_6_" class="st0" d="M579,34c0-6.6-5.4-12-12-12H34c-6.6,0-12,5.4-12,12v533c0,6.6,5.4,12,12,12h533
	c6.6,0,12-5.4,12-12V34z"/>
<text id="XMLID_2_" transform="matrix(1 0 0 1 25.1646 421.6388)" class="st1 st2 st3">Ma</text>
<path id="XMLID_1_" class="st1" d="M446.6,175.2l1-52.8l51.8,1c3,0.1,5.5-2.4,5.5-5.4c0.1-3-2.3-5.5-5.3-5.6l-51.8-1l1-52.4
	c0.1-3.7-3.2-6.8-6.9-6.9c-3.7-0.1-7.1,2.9-7.1,6.6l-1,52.4l-51.8-1c-3-0.1-5.5,2.4-5.5,5.4c-0.1,3,2.3,5.5,5.3,5.6l51.8,1l-1,52.8
	c-0.1,3.7,3.2,6.8,6.9,6.9C443.2,181.9,446.5,178.9,446.6,175.2z"/>
<text id="XMLID_3_" transform="matrix(0.9235 -0.3837 0.3837 0.9235 53.8674 143.1575)" class="st1 st4 st5"> π</text>
<path id="XMLID_4_" class="st1" d="M344.6,476.8l-109.8,39c-4.5,1.6-6.9,6.6-5.3,11.1l0,0c1.6,4.5,6.6,6.9,11.1,5.3l109.8-39
	c4.5-1.6,6.9-6.6,5.3-11.1v0C354.1,477.5,349.1,475.2,344.6,476.8z"/>
<path id="XMLID_5_" class="st1" d="M281.5,484.3l-1.7,0.6c-6.2,2.2-13.1-1.1-15.3-7.3l-2.7-7.5c-2.2-6.2,1.1-13.1,7.3-15.3l1.7-0.6
	c6.2-2.2,13.1,1.1,15.3,7.3l2.7,7.5C291,475.2,287.7,482.1,281.5,484.3z"/>
<path id="XMLID_7_" class="st1" d="M309.9,553.9l-1.7,0.6c-6.2,2.2-13.1-1.1-15.3-7.3l-2.7-7.5c-2.2-6.2,1.1-13.1,7.3-15.3l1.7-0.6
	c6.2-2.2,13.1,1.1,15.3,7.3l2.7,7.5C319.4,544.8,316.1,551.7,309.9,553.9z"/>
</svg>
