<?xml version="1.0" encoding="utf-8"?>
<!-- Generator: Adobe Illustrator 19.0.0, SVG Export Plug-In . SVG Version: 6.00 Build 0)  -->
<svg version="1.1" xmlns="http://www.w3.org/2000/svg" xmlns:xlink="http://www.w3.org/1999/xlink" x="0px" y="0px"
	 viewBox="-339 101 600 600" style="enable-background:new -339 101 600 600;" xml:space="preserve">
<style type="text/css">
	.st0{fill:#FFFFFF;}
	.st1{fill:#90A574;}
	.st2{font-family:'MyriadPro-Regular';}
	.st3{font-size:400px;}
	.st4{fill:none;}
</style>
<g id="Layer_2">
	<rect x="-339" y="101" class="st0" width="600" height="600"/>
</g>
<g id="Layer_1">
	<path id="XMLID_6_" class="st1" d="M243.5,141.3c0-6.6-5.4-12-12-12h-533c-6.6,0-12,5.4-12,12v533c0,6.6,5.4,12,12,12h533
		c6.6,0,12-5.4,12-12V141.3z"/>
	<text transform="matrix(1 0 0 1 -242 527)" class="st0 st2 st3">RE</text>
	
		<rect x="100.8" y="189.8" transform="matrix(0.9263 -0.3767 0.3767 0.9263 -63.9477 76.5839)" class="st0" width="126" height="24"/>
	<rect x="89" y="207.4" transform="matrix(0.3767 0.9263 -0.9263 0.3767 309.8232 -21.6508)" class="st0" width="164" height="24"/>
	<g>
		<path class="st0" d="M-260.1,593.3c-8.7-25.3-0.7-52.2,18-69c-0.5,0.2-1.1,0.3-1.6,0.5c-36.3,12.4-55.6,52-43.2,88.3
			c12.4,36.3,52,55.6,88.3,43.2c17.2-5.9,30.5-17.8,38.5-32.6c-5.3,4-11.4,7.3-18.1,9.6C-211.9,644.9-248.6,627-260.1,593.3z"/>
	</g>
	<polygon class="st0" points="-194.5,549.2 -193.5,568.9 -176.7,579.2 -195.1,586.3 -199.7,605.5 -212.1,590.1 -231.8,591.6 
		-221.1,575.1 -228.6,556.8 -209.5,561.9 	"/>
	<g>
		<path class="st0" d="M-300.9,168.5c12,0.9,23.6,1.5,35.1,2.6c3.6,0.3,5.7-0.8,7.6-3.7c6.4-9.9,13.1-19.7,19.8-29.6
			c0.1-0.2,0.4-0.3,0.9-0.6c1.9,3.7,3.7,7.3,5.5,11c3.7,7.7,7.4,15.4,11.1,23.1c0.9,1.9,2.1,3,4.5,3.1c11.6,0.6,23.2,1.5,34.7,2.3
			c0.8,0.1,1.7,0.2,2.8,0.3c-3.9,5.8-7.7,11.3-11.4,16.9c-3,4.5-5.8,9.3-9.1,13.6c-2.2,2.8-1,4.9,0.2,7.4
			c5.2,10.5,10.3,21,15.6,31.9c-12.8-0.9-25.2-1.8-37.6-2.7c-2.3-0.2-3.5,0.6-4.7,2.5c-4.8,7.3-9.7,14.4-14.6,21.7
			c-2.2,3.3-4.4,6.6-6.8,10.3c-3.1-6.3-6-12.2-8.9-18c-2.8-5.7-5.6-11.5-8.3-17.3c-0.8-1.6-1.8-2.3-3.7-2.4
			c-11.5-0.7-23-1.5-34.5-2.3c-0.8-0.1-1.7-0.1-2.2-0.2c2.5-4.2,4.9-8.4,7.5-12.5c4.2-6.6,8.7-13.2,12.9-19.8
			c0.4-0.6,0.4-1.7,0.1-2.3c-3.9-8.5-8-16.9-12-25.4C-298,175.1-299.3,172-300.9,168.5z M-212.9,214.1c0,0,0.1,0,0.1,0.1
			c0.6-1,1.4-2,1.8-3.1c0.3-0.8,0.6-2,0.2-2.7c-4.1-8.6-8.4-17.2-12.6-25.8c-0.7-1.4-1.5-1.8-2.9-1.8c-8.6-0.5-17.2-1-25.8-1.8
			c-3.5-0.3-5.8,0.2-7.8,3.5c-4.7,7.6-9.8,14.9-14.8,22.4c-0.2,0.4-0.1,1.2,0.1,1.6c3.7,7.7,7.7,15.3,11.1,23.1
			c1.7,3.9,3.7,5.3,8,5.4c8.4,0.1,16.8,1.2,25.3,1.7c0.9,0.1,2.4-0.3,2.8-1C-222.4,228.5-217.7,221.3-212.9,214.1z M-228,173.7
			c-3.6-7.7-7-15-10.6-22.9c-4.8,7.1-9.3,13.8-14.1,21C-244.2,172.4-236.3,173-228,173.7z M-232.1,243.4c-8.2-0.6-16-1.1-24.1-1.7
			c3.3,7.4,6.5,14.4,9.8,21.8C-241.6,256.7-237,250.2-232.1,243.4z M-279.9,212.6c-4.7,6.7-9.1,12.9-13.7,19.5
			c8.2,0.6,16.1,1.2,24.4,1.8C-272.7,226.8-276.1,220.1-279.9,212.6z M-206.2,217.7c-4.5,6.7-8.7,13-13.1,19.6
			c8,0.6,15.7,1.2,23.6,1.8C-199.2,231.9-202.6,225-206.2,217.7z M-215.8,181.6c3.6,7,7.1,13.7,10.7,20.7
			c4.5-6.5,8.7-12.6,13.3-19.2C-200.1,182.6-207.8,182.1-215.8,181.6z M-265.8,178c-8.2-0.5-15.6-1-23.4-1.5
			c3.4,6.9,6.8,13.5,10.3,20.7C-274.5,190.7-270.3,184.6-265.8,178z"/>
		<path class="st4" d="M-212.9,214.1c-4.8,7.2-9.5,14.4-14.4,21.5c-0.5,0.7-1.9,1.1-2.8,1c-8.4-0.5-16.8-1.6-25.3-1.7
			c-4.3-0.1-6.3-1.5-8-5.4c-3.4-7.8-7.4-15.4-11.1-23.1c-0.2-0.5-0.4-1.3-0.1-1.6c4.9-7.5,10.1-14.8,14.8-22.4
			c2-3.3,4.3-3.8,7.8-3.5c8.6,0.8,17.2,1.3,25.8,1.8c1.4,0.1,2.3,0.5,2.9,1.8c4.2,8.6,8.5,17.1,12.6,25.8c0.3,0.7,0.1,1.9-0.2,2.7
			c-0.4,1.1-1.2,2.1-1.8,3.1C-212.8,214.2-212.8,214.1-212.9,214.1z"/>
		<path class="st4" d="M-228,173.7c-8.3-0.6-16.2-1.2-24.7-1.9c4.8-7.2,9.3-13.9,14.1-21C-234.9,158.6-231.5,165.9-228,173.7z"/>
		<path class="st4" d="M-232.1,243.4c-4.9,6.9-9.5,13.4-14.3,20.1c-3.3-7.4-6.5-14.4-9.8-21.8C-248.1,242.3-240.3,242.8-232.1,243.4
			z"/>
		<path class="st4" d="M-279.9,212.6c3.8,7.5,7.2,14.2,10.8,21.4c-8.3-0.6-16.3-1.2-24.4-1.8C-289,225.5-284.6,219.2-279.9,212.6z"
			/>
		<path class="st4" d="M-206.2,217.7c3.6,7.3,7,14.2,10.5,21.4c-7.9-0.6-15.6-1.2-23.6-1.8C-215,230.8-210.7,224.4-206.2,217.7z"/>
		<path class="st4" d="M-215.8,181.6c8,0.5,15.8,1,23.9,1.5c-4.5,6.6-8.8,12.7-13.3,19.2C-208.8,195.3-212.2,188.6-215.8,181.6z"/>
		<path class="st4" d="M-265.8,178c-4.5,6.6-8.7,12.7-13.1,19.2c-3.6-7.1-6.9-13.8-10.3-20.7C-281.4,177-274,177.5-265.8,178z"/>
	</g>
	<g>
		<path class="st0" d="M206.2,520.8c1.3,0.2,2.2,0.9,2.8,2c0.4,0.8,0.4,1.7-0.1,2.5c-1.1,1.9-2.1,3.8-2.8,5.8
			c-0.6,1.6-0.7,3.2-0.5,4.8c0.2,2,0.1,3.9-0.7,5.8c-0.8,1.9-2.2,3.4-3.9,4.7c-1.4,1-2.7,2-3.7,3.4c-0.8,1.1-1.4,2.2-1.4,3.6
			c0,0.3,0,0.5,0.1,0.8c0.5,1.2,0.3,2.3-0.6,3.2c-0.8,0.8-1.8,1.3-2.8,1.6c-2.4,0.7-4.9,1.2-7.3,1.8c-2.4,0.5-4.8,1-7.1,1.5
			c-0.3,0.1-0.4,0.2-0.5,0.5c-0.4,1.1-1.1,2-1.8,2.9c-0.3,0.4-0.6,0.8-0.9,1.2c-0.1,0.1-0.1,0.3-0.1,0.5c0,0.1,0.3,0.1,0.4,0.1
			c0.5,0,1-0.2,1.5-0.2c1.7-0.1,2.9,0.6,3.8,1.9c0.2,0.3,0.3,0.3,0.6,0.3c4.3-0.9,8.6-1.8,12.8-2.8c0.7-0.1,0.8-0.4,0.8-1.1
			c0-0.2,0.2-0.4,0.3-0.5c0.7-0.4,1.6-0.6,2.4-0.5c0.4,0.1,0.6,0.3,0.7,0.7c0.8,4,1.7,7.9,2.5,11.9c0.3,1.3-0.4,2.3-1.6,2.6
			c-0.2,0.1-0.4,0.1-0.7,0.2c-6.1,1.3-12.1,2.6-18.2,3.9c-0.5,0.1-0.5,0.1-0.4,0.6c0.7,3.4,1.5,6.8,2.2,10.2c0,0.2,0.1,0.3,0.1,0.5
			c0.8,0,1.6-0.1,2.4-0.1c1.1,0,2.2,0.2,3.3,0.6c0.9,0.4,1.2,0.9,0.9,1.9c-0.4,1.9-0.9,3.7-1.2,5.6c-0.3,1.6-0.5,3.3-0.3,4.9
			c0,0.4,0.1,0.9,0.2,1.3c3.4,16.1,6.9,32.3,10.4,48.4c0.5,2.5-0.6,4.5-3,5.2c-1.5,0.5-3,0.8-4.6,0.6c-1.5-0.2-2.7-0.8-3.3-2.2
			c-0.1-0.3-0.2-0.6-0.3-1c-5.2-24.5-10.5-49.1-15.7-73.6c-0.2-0.8-0.2-0.8-1-0.7c-15.7,3.4-31.4,6.7-47.1,10.1
			c-0.8,0.2-0.7,0.1-0.5,0.8c5.3,24.6,10.5,49.2,15.8,73.8c0.4,1.7-0.2,3-1.6,4.1c-0.8,0.6-1.8,1-2.8,1.3c-0.9,0.2-1.9,0.4-2.8,0.4
			c-2.1-0.1-3.6-1.4-4-3.4c-3.4-15.9-6.8-31.7-10.1-47.6c-0.5-2.3-1.3-4.4-2.7-6.3c-1-1.5-2.1-2.9-3.2-4.3c-0.2-0.2-0.4-0.5-0.5-0.7
			c-0.5-0.7-0.5-1.2,0.1-1.9c0.8-1,1.9-1.7,3.1-2.2c0.6-0.3,1.2-0.5,1.9-0.8c0-0.1-0.1-0.3-0.1-0.4c-0.7-3.5-1.5-6.9-2.2-10.4
			c-0.1-0.4-0.2-0.4-0.6-0.4c-6.1,1.3-12.2,2.6-18.3,3.9c-0.4,0.1-0.7,0.1-1.1,0.1c-1,0-1.7-0.6-2-1.5c-0.1-0.3-0.1-0.6-0.2-0.9
			c-0.8-3.7-1.6-7.4-2.4-11.1c-0.1-0.6,0-1,0.6-1.2c0.6-0.2,1.2-0.3,1.9-0.4c0.4-0.1,0.7,0.1,0.9,0.6c0.1,0.4,0.4,0.5,0.8,0.5
			c0.2,0,0.3,0,0.5-0.1c4.2-0.9,8.4-1.8,12.5-2.7c0.4-0.1,0.6-0.2,0.6-0.6c0.2-1.7,1.5-3,3.2-3.4c0.4-0.1,0.7-0.2,1.1-0.3
			c0.4-0.2,0.4-0.4,0.1-0.6c-0.6-0.3-1.1-0.6-1.7-1c-1-0.5-1.9-1.1-2.7-1.9c-0.1-0.1-0.3-0.1-0.5-0.1c-3.8,0.8-7.6,1.6-11.4,2.4
			c-1.6,0.4-3.3,0.7-4.9,0.5c-0.8-0.1-1.5-0.2-2.1-0.7c-0.8-0.5-1.3-1.2-1.3-2.2c0-0.7-0.3-1.3-0.7-1.9c-0.8-1.1-1.9-1.8-3.1-2.2
			c-1.3-0.4-2.5-0.8-3.8-1.1c-2.2-0.5-4.2-1.4-5.8-3c-1.1-1.2-1.9-2.5-2.4-4.1c-0.7-2.1-1.8-4.1-3.5-5.6c-0.7-0.6-1.3-1.2-2-1.8
			c-0.4-0.4-0.9-0.7-1.3-1c-0.8-0.5-1.5-1-1.9-1.9c0-0.2-0.1-0.4-0.1-0.6c0,0,0-0.1,0-0.1c0.1-1.4,0.6-2.5,1.8-3.2
			c0.2,0,0.4-0.1,0.6-0.1c0.1,0,0.2,0,0.3,0c1.3-0.1,2.6,0.1,3.9,0.5c2.3,0.8,4.7,1.4,7.2,1.9c4.9,0.8,9.9,1.1,14.9,1.1
			c3.3,0,6.5-0.2,9.8-0.4c2.9-0.2,5.8-0.4,8.8-0.7c2.5-0.3,4.9-0.6,7.4-0.9c2.9-0.4,5.8-0.9,8.7-1.4c2.7-0.5,5.4-0.9,8-1.5
			c4.6-1,9.1-2,13.7-3.1c3.6-0.9,7.1-1.9,10.7-2.9c2.4-0.7,4.8-1.5,7.2-2.2c2.6-0.9,5.3-1.7,7.8-2.7c3-1.1,5.9-2.3,8.8-3.5
			c4.1-1.7,8-3.6,11.8-5.8c3.1-1.8,6-3.7,8.7-5.9c1-0.9,2.1-1.6,3.2-2.2c0.3-0.1,0.6-0.3,0.9-0.4C205.8,520.9,206,520.9,206.2,520.8
			z M128.4,573C128.4,573,128.4,573,128.4,573c-2.1,0.4-4.3,0.9-6.4,1.3c-0.3,0.1-0.4,0.2-0.5,0.4c-0.2,0.5-0.5,1.1-0.8,1.6
			c-0.5,0.8-1.1,1.5-1.6,2.2c-0.1,0.2-0.3,0.4-0.4,0.6c-0.1,0.2,0,0.4,0.2,0.4c0.3,0,0.6,0,0.9-0.1c1-0.2,2-0.1,3,0.3
			c1.3,0.6,2.3,1.5,3.2,2.5c0.2,0.2,0.4,0.3,0.7,0.2c3.4-0.7,6.7-1.5,10.1-2.2c0.4-0.1,0.5-0.2,0.4-0.6c-0.6-2.6-1.1-5.2-1.7-7.9
			c-0.1-0.5-0.1-0.5-0.6-0.4C132.7,572.1,130.5,572.5,128.4,573z M150.4,577.5c0.1,0,0.1,0,0.2,0c3.5-0.7,7-1.5,10.5-2.3
			c0.1,0,0.3-0.2,0.3-0.3c0.4-0.8,0.7-1.7,1.1-2.6c0.6-1.2,1.6-2.1,2.9-2.6c0.4-0.1,0.8-0.2,1.2-0.3c0.1-0.1,0.3-0.2,0.4-0.3
			c0-0.1-0.2-0.3-0.3-0.4c-0.4-0.3-0.9-0.5-1.3-0.7c-1-0.5-2-1.1-2.8-1.9c-0.2-0.2-0.4-0.2-0.6-0.2c-4.3,0.9-8.7,1.8-13,2.7
			c-0.3,0.1-0.4,0.2-0.3,0.5c0.6,2.7,1.1,5.3,1.7,8C150.4,577.2,150.4,577.3,150.4,577.5z"/>
		<path class="st0" d="M61.3,554.7c0,0,0,0.1,0,0.1"/>
		<path class="st0" d="M63.1,551.4"/>
	</g>
</g>
</svg>
