<?xml version="1.0" encoding="utf-8"?>
<!-- Generator: Adobe Illustrator 19.0.0, SVG Export Plug-In . SVG Version: 6.00 Build 0)  -->
<svg version="1.1" id="Layer_1" xmlns="http://www.w3.org/2000/svg" xmlns:xlink="http://www.w3.org/1999/xlink" x="0px" y="0px"
	 viewBox="0 0 600 600" style="enable-background:new 0 0 600 600;" xml:space="preserve">
<style type="text/css">
	.st0{fill:none;}
	.st1{fill:#FFFFFF;stroke:#000000;stroke-miterlimit:10;}
</style>
<g id="XMLID_14_">
	<polygon id="XMLID_20_" class="st0" points="415.4,292.9 402.5,300.3 351.2,211.4 364.1,204.3 359.7,197 351,197 351,211 248,211 
		248,197 240.3,197 236.1,203.9 247.5,210.3 196.2,299.1 184.8,292.6 180.5,300 184.1,306.3 195.5,299.7 246.8,388.6 235.4,395.4 
		240.3,404 247,404 247,390 350,390 350,404 359.7,404 363.4,397.5 350.5,389.9 401.8,301 414.7,308.4 419.5,300 	"/>
	<rect id="XMLID_21_" x="248.5" y="196.5" class="st1" width="102" height="14"/>
	<rect id="XMLID_22_" x="248.5" y="14.5" class="st1" width="102" height="146"/>
	<polygon id="XMLID_23_" class="st1" points="247.5,210.2 236.1,203.7 184.8,292.5 196.2,299.1 	"/>
	<polygon id="XMLID_24_" class="st1" points="77.6,112.1 26.3,201 153.8,274.6 205,185.7 	"/>
	<polygon id="XMLID_25_" class="st1" points="195.5,299.7 184.1,306.3 235.4,395.1 246.8,388.6 	"/>
	<polygon id="XMLID_26_" class="st1" points="25.6,397.8 76.9,486.7 204.3,413.1 153.1,324.2 	"/>
	<rect id="XMLID_27_" x="246.5" y="439.5" class="st1" width="103" height="146"/>
	<rect id="XMLID_28_" x="246.5" y="389.5" class="st1" width="103" height="14"/>
	<polygon id="XMLID_29_" class="st1" points="350.5,389.8 363.4,397.2 414.7,308.3 401.8,300.9 	"/>
	<polygon id="XMLID_30_" class="st1" points="394.5,415.2 520.4,487.9 571.7,399 445.7,326.3 	"/>
	<polygon id="XMLID_31_" class="st1" points="402.5,300.3 415.4,292.9 364.1,204 351.2,211.4 	"/>
	<polygon id="XMLID_32_" class="st1" points="572.4,202.2 521.1,113.3 395.2,186.1 446.4,274.9 	"/>
	<polygon id="XMLID_33_" class="st1" points="419.5,300 414.7,308.3 445.7,326.3 460.9,300 446.4,274.9 415.4,292.9 	"/>
	<polygon id="XMLID_34_" class="st1" points="240.3,403.5 235.4,395.1 204.3,413.1 219.6,439.5 246.5,439.5 246.5,403.5 	"/>
	<polygon id="XMLID_35_" class="st1" points="359.7,403.5 349.5,403.5 349.5,439.5 380.4,439.5 394.5,415.2 363.4,397.2 	"/>
	<polygon id="XMLID_36_" class="st1" points="240.3,196.5 248.5,196.5 248.5,160.5 219.6,160.5 205,185.7 236.1,203.7 	"/>
	<polygon id="XMLID_37_" class="st1" points="180.5,300 184.8,292.5 153.8,274.6 139.1,300 153.1,324.2 184.1,306.3 	"/>
	<polygon id="XMLID_38_" class="st1" points="359.7,196.5 364.1,204 395.2,186.1 380.4,160.5 350.5,160.5 350.5,196.5 	"/>
	<rect id="XMLID_39_" x="248.5" y="160.5" class="st1" width="102" height="36"/>
	<polygon id="XMLID_40_" class="st1" points="236.1,203.7 205,185.7 153.8,274.6 184.8,292.5 	"/>
	<polygon id="XMLID_41_" class="st1" points="184.1,306.3 153.1,324.2 204.3,413.1 235.4,395.1 	"/>
	<rect id="XMLID_42_" x="246.5" y="403.5" class="st1" width="103" height="36"/>
	<polygon id="XMLID_43_" class="st1" points="414.7,308.3 363.4,397.2 394.5,415.2 445.7,326.3 	"/>
	<polygon id="XMLID_44_" class="st1" points="415.4,292.9 446.4,274.9 395.2,186.1 364.1,204 	"/>
</g>
</svg>
